<svg xmlns="http://www.w3.org/2000/svg" viewBox="0 0 64 64">
	<g stroke="#60a0ff" fill="none" stroke-width="4" transform="rotate(-22.5 32 32)">
		<path d="M 32 4 A 32 32 0 0 1 42 6" />		
		<path d="M 32 4 A 32 32 0 0 1 42 6" transform="rotate(45 32 32)"/>
		<path d="M 32 4 A 32 32 0 0 1 42 6" transform="rotate(90 32 32)"/>
		<path d="M 32 4 A 32 32 0 0 1 42 6" transform="rotate(135 32 32)"/>
		<path d="M 32 4 A 32 32 0 0 1 42 6" transform="rotate(135 32 32)"/>
		<path d="M 32 4 A 32 32 0 0 1 42 6" transform="rotate(180 32 32)"/>
		<path d="M 32 4 A 32 32 0 0 1 42 6" transform="rotate(225 32 32)"/>
		<path d="M 32 4 A 32 32 0 0 1 42 6" transform="rotate(270 32 32)"/>
		<path d="M 32 4 A 32 32 0 0 1 42 6" transform="rotate(315 32 32)"/>
		<!-- <path d="M 32 4 A 32 32 0 0 1 42 5.5" transform="rotate(360 32 32)"/> -->

		<!-- <path d="M 46 4 A 32 32 0 0 1 56 12" />		
		<path d="M 8 52 A 32 32 0 0 0 18 60" />
		<path d="M 46 60 A 32 32 0 0 0 56 52" />  -->
	</g>
	<circle stroke="#60a0ff" fill="none" stroke-width="3" cx="32" cy="32" r="24"></circle>
	<circle stroke="#ffa060" fill="none" stroke-width="2" cx="32" cy="32" r="10"></circle>
</svg>